<svg xmlns="http://www.w3.org/2000/svg" viewBox="0 0 81.5 82.696" width="81.5mm" height="82.696mm" role="img" aria-label="The A-series: an A0 rectangle halved repeatedly into A1 to A10, with the A4 cell outlined in ink blue"><rect x="1" y="1.5" width="56" height="79.196" fill="#fff" stroke="#2A2926" stroke-width="0.212"/><rect x="1" y="1.5" width="56" height="39.598" fill="none" stroke="#2A2926" stroke-width="0.123"/><rect x="1" y="41.098" width="28" height="39.598" fill="none" stroke="#2A2926" stroke-width="0.123"/><rect x="29" y="41.098" width="28" height="19.799" fill="none" stroke="#2A2926" stroke-width="0.123"/><rect x="29" y="60.897" width="14" height="19.799" fill="none" stroke="#2A2926" stroke-width="0.123"/><rect x="43" y="60.897" width="14" height="9.899" fill="none" stroke="#2A2926" stroke-width="0.123"/><rect x="43" y="70.796" width="7" height="9.899" fill="none" stroke="#2A2926" stroke-width="0.123"/><rect x="50" y="70.796" width="7" height="4.95" fill="none" stroke="#2A2926" stroke-width="0.123"/><rect x="50" y="75.746" width="3.5" height="4.95" fill="none" stroke="#2A2926" stroke-width="0.123"/><rect x="53.5" y="75.746" width="3.5" height="2.475" fill="none" stroke="#2A2926" stroke-width="0.123"/><rect x="53.5" y="78.221" width="1.75" height="2.475" fill="none" stroke="#2A2926" stroke-width="0.123"/><rect x="55.25" y="78.221" width="1.75" height="2.475" fill="none" stroke="#2A2926" stroke-width="0.123"/><rect x="29" y="60.897" width="14" height="19.799" fill="none" stroke="#2E2A8E" stroke-width="0.318"/><text x="29" y="22.442" font-family="Hanken Grotesk, Helvetica, Arial, sans-serif" font-size="3.175" text-anchor="middle" letter-spacing="0.06em" fill="#2A2926">A1</text><text x="15" y="62.04" font-family="Hanken Grotesk, Helvetica, Arial, sans-serif" font-size="3.175" text-anchor="middle" letter-spacing="0.06em" fill="#2A2926">A2</text><text x="43" y="52.141" font-family="Hanken Grotesk, Helvetica, Arial, sans-serif" font-size="3.175" text-anchor="middle" letter-spacing="0.06em" fill="#2A2926">A3</text><text x="36" y="71.774" font-family="Hanken Grotesk, Helvetica, Arial, sans-serif" font-size="2.717" text-anchor="middle" letter-spacing="0.06em" fill="#2E2A8E">A4</text><text x="50" y="66.825" font-family="Hanken Grotesk, Helvetica, Arial, sans-serif" font-size="2.717" text-anchor="middle" letter-spacing="0.06em" fill="#2A2926">A5</text><text x="46.5" y="76.33" font-family="Hanken Grotesk, Helvetica, Arial, sans-serif" font-size="1.623" text-anchor="middle" letter-spacing="0.06em" fill="#2A2926">A6</text><text x="53.5" y="73.856" font-family="Hanken Grotesk, Helvetica, Arial, sans-serif" font-size="1.623" text-anchor="middle" letter-spacing="0.06em" fill="#2A2926">A7</text><path d="M55.25 76.984L60.8 64.996" stroke="#615F58" stroke-width="0.088" fill="none"/><circle cx="55.25" cy="76.984" r="0.3" fill="#2A2926"/><text x="62" y="65.896" font-family="Hanken Grotesk, Helvetica, Arial, sans-serif" font-size="2.117" letter-spacing="0.06em" fill="#2A2926">A9</text><path d="M51.75 78.221L60.8 69.596" stroke="#615F58" stroke-width="0.088" fill="none"/><circle cx="51.75" cy="78.221" r="0.3" fill="#2A2926"/><text x="62" y="70.496" font-family="Hanken Grotesk, Helvetica, Arial, sans-serif" font-size="2.117" letter-spacing="0.06em" fill="#2A2926">A8</text><path d="M54.375 79.459L60.8 74.196" stroke="#615F58" stroke-width="0.088" fill="none"/><circle cx="54.375" cy="79.459" r="0.3" fill="#2A2926"/><text x="62" y="75.096" font-family="Hanken Grotesk, Helvetica, Arial, sans-serif" font-size="2.117" letter-spacing="0.06em" fill="#2A2926">A10</text><path d="M56.125 79.459L60.8 78.796" stroke="#615F58" stroke-width="0.088" fill="none"/><circle cx="56.125" cy="79.459" r="0.3" fill="#2A2926"/><text x="62" y="79.696" font-family="Hanken Grotesk, Helvetica, Arial, sans-serif" font-size="2.117" letter-spacing="0.06em" fill="#2A2926">A10</text><text x="61" y="5.5" font-family="Hanken Grotesk, Helvetica, Arial, sans-serif" font-size="2.293"  fill="#2A2926">A0 = 1 m²</text><text x="61" y="9.7" font-family="Hanken Grotesk, Helvetica, Arial, sans-serif" font-size="2.293" fill="#615F58">841 × 1189 mm</text></svg>
